<svg class="icon" viewBox="0 0 1024 1024" xmlns="http://www.w3.org/2000/svg" width="200" height="200"><defs><style/></defs><path d="M908.548 205.661L582.454 20.479c-21.959-12.5-46.417-18.694-70.876-18.694-24.458 0-48.917 6.194-70.875 18.693L114.591 205.661c-44.496 25.298-71.976 72.312-71.976 123.281v367.902c0 50.932 27.48 97.982 71.976 123.242l326.112 185.223C462.661 1017.77 487.12 1024 511.578 1024c24.459 0 48.917-6.23 70.876-18.691l326.094-185.223c44.514-25.26 71.975-72.311 71.975-123.242V328.942c-.001-50.969-27.461-97.983-71.975-123.281zM548.257 945.83a74.699 74.699 0 01-36.679 9.664 74.6 74.6 0 01-36.679-9.664L235.427 809.826c15.597-8.58 31.623-14.551 45.26-15.709 16.53-1.418 39.645-7.162 64.123-13.246 9.179-2.313 18.414-4.588 27.145-6.604 51.547-11.902 68.749-22.723 77.199-29.85a34.271 34.271 0 0012.202-26.865c-.504-22.5-8.209-44.402-22.425-63.619-2.258-3.955-5.317-7.424-8.993-10.223-46.827-35.635-74.793-97.236-74.793-164.734 0-106.64 70.503-193.393 157.162-193.393 86.64 0 157.123 86.64 157.123 193.204 0 67.35-27.966 128.803-74.793 164.438-2.238 1.68-4.328 3.768-6.101 5.969-16.306 20.41-24.794 42.76-25.297 66.379a34.32 34.32 0 0012.014 26.717c7.594 6.455 23.173 15.484 76.66 27.908 32.237 7.539 69.475 14.031 90.52 15.822 17.816 1.566 37.76 8.357 55.503 17.982L548.257 945.83zm363.35-248.986c0 26.268-14.273 50.744-37.257 63.805l-9.981 5.672c-.337-.299-.466-.709-.803-.971-32.312-26.342-75.37-44.104-115.184-47.537-17.574-1.529-52.275-7.686-80.745-14.326-11.978-2.762-21.249-5.225-28.282-7.24.355-.559.728-1.117 1.138-1.715 61.361-48.844 97.87-129.027 97.87-215.743 0-144.324-101.415-261.709-226.057-261.709-124.68 0-226.077 117.46-226.077 261.898 0 86.49 36.193 166.525 97.087 215.406a52.32 52.32 0 013.283 5c-7.239 2.313-17.071 5.111-30.242 8.133-9.123 2.127-18.73 4.516-28.264 6.902-19.832 4.926-42.293 10.484-53.32 11.455-34.477 2.947-73.281 20.297-105.8 46.193l-20.186-11.418c-22.965-13.061-37.256-37.537-37.256-63.805V328.942c0-26.306 14.291-50.745 37.256-63.804l326.112-185.22a74.608 74.608 0 0136.679-9.664 74.701 74.701 0 0136.679 9.664l326.094 185.22c22.983 13.06 37.257 37.499 37.257 63.804v367.902z"/></svg>